name Walk6.mot
datacolumns 19
datarows 12
range 1.70500000 1.76000000
endheader

                time	   L_ground_force_vx	   L_ground_force_vy	   L_ground_force_vz	   L_ground_force_px	   L_ground_force_py	   L_ground_force_pz	   R_ground_force_vx	   R_ground_force_vy	   R_ground_force_vz	   R_ground_force_px	   R_ground_force_py	   R_ground_force_pz	   L_ground_torque_x	   L_ground_torque_y	   L_ground_torque_z	   R_ground_torque_x	   R_ground_torque_y	   R_ground_torque_z	
          1.70500000	         27.29365662	        679.97617856	         41.30053977	         -0.40230499	          0.00000000	         -0.05387122	         -0.02750799	          0.26451208	          0.02720568	          0.00009017	          0.00000000	          0.00008594	          0.00000000	         -0.43078613	          0.00000000	          0.00000000	         -0.00637946	          0.00000000	
          1.71000000	         29.04065309	        686.31958068	         41.88701787	         -0.40058778	          0.00000000	         -0.05403613	         -0.03896914	          0.32827591	          0.03230677	          0.00010471	          0.00000000	          0.00009876	          0.00000000	         -0.42186705	          0.00000000	          0.00000000	         -0.00709484	          0.00000000	
          1.71500000	         30.81350278	        692.66883377	         42.50139370	         -0.39882208	          0.00000000	         -0.05421434	         -0.05203542	          0.38722229	          0.03627697	          0.00011446	          0.00000000	          0.00010659	          0.00000000	         -0.40683049	          0.00000000	          0.00000000	         -0.00733540	          0.00000000	
          1.72000000	         32.60113664	        698.96641833	         43.13791262	         -0.39700341	          0.00000000	         -0.05440848	         -0.06599330	          0.43138670	          0.03799405	          0.00011555	          0.00000000	          0.00010565	          0.00000000	         -0.38478166	          0.00000000	          0.00000000	         -0.00680586	          0.00000000	
          1.72500000	         34.39024761	        705.15107452	         43.78757809	         -0.39512670	          0.00000000	         -0.05462017	         -0.07962009	          0.44705368	          0.03598589	          0.00010300	          0.00000000	          0.00009114	          0.00000000	         -0.35499827	          0.00000000	          0.00000000	         -0.00514074	          0.00000000	
          1.73000000	         36.16593261	        711.15880072	         44.43895548	         -0.39318611	          0.00000000	         -0.05484944	         -0.09105005	          0.41635020	          0.02841635	          0.00007073	          0.00000000	          0.00005729	          0.00000000	         -0.31681484	          0.00000000	          0.00000000	         -0.00191021	          0.00000000	
          1.73500000	         37.91282742	        716.92483064	         45.07799380	         -0.39117628	          0.00000000	         -0.05509502	         -0.09764466	          0.31712413	          0.01310802	          0.00001168	          0.00000000	         -0.00000257	          0.00000000	         -0.26951651	          0.00000000	          0.00000000	          0.00336301	          0.00000000	
          1.74000000	         39.61670876	        722.38816129	         45.68822654	         -0.38909238	          0.00000000	         -0.05535645	         -0.09588584	          0.12328270	         -0.01238006	         -0.00008184	          0.00000000	         -0.00009559	          0.00000000	         -0.21227868	          0.00000000	          0.00000000	          0.01117121	          0.00000000	
          1.74500000	         41.26662502	        727.49570113	         46.25287329	         -0.38693093	          0.00000000	         -0.05563354	         -0.08131775	         -0.19419390	         -0.05059885	         -0.00021757	          0.00000000	         -0.00022886	          0.00000000	         -0.14449002	          0.00000000	          0.00000000	          0.02196942	          0.00000000	
          1.75000000	         42.85649859	        732.20345100	         46.75705200	         -0.38469133	          0.00000000	         -0.05592432	         -0.04857180	         -0.66531092	         -0.10395619	         -0.00040240	          0.00000000	         -0.00040845	          0.00000000	         -0.06601340	          0.00000000	          0.00000000	          0.03609850	          0.00000000	
          1.75500000	         44.38472415	        736.47276222	         47.18949145	         -0.38237585	          0.00000000	         -0.05622578	          0.00848182	         -1.31790972	         -0.17433984	         -0.00064100	          0.00000000	         -0.00063812	          0.00000000	          0.02295943	          0.00000000	          0.00000000	          0.05367913	          0.00000000	
          1.76000000	         45.85249849	        740.27144708	         47.54497500	         -0.37998947	          0.00000000	         -0.05653463	          0.09640404	         -2.17302376	         -0.26259367	         -0.00093400	          0.00000000	         -0.00091758	          0.00000000	          0.12201573	          0.00000000	          0.00000000	          0.07447387	          0.00000000	
